jump_forces.mot																		
version=1																		
nRows=36																		
nColumns=19																		
inDegrees=yes																		
endheader																		
time	ground_force_vx	ground_force_vy	ground_force_vz	ground_force_px	ground_force_py	ground_force_pz	1_ground_force_vx	1_ground_force_vy	1_ground_force_vz	1_ground_force_px	1_ground_force_py	1_ground_force_pz	ground_torque_x	ground_torque_y	ground_torque_z	1_ground_torque_x	1_ground_torque_y	1_ground_torque_z
2.2985	47.792342	545.686689	-5.281651	0.44748	0	-0.150435	-57.697853	964.569767	-28.962183	0.772028	0	-0.104708	0	4.082058	0	0	-2.607976	0
2.29875	47.966202	545.804555	-4.879417	0.447468	0	-0.150585	-57.677442	963.488082	-29.255834	0.772032	0	-0.104694	0	4.049454	0	0	-2.587586	0
2.299	48.136114	545.917993	-4.480029	0.447456	0	-0.150733	-57.659732	962.403933	-29.547891	0.772037	0	-0.10468	0	4.017191	0	0	-2.566825	0
2.29925	48.302017	546.026907	-4.08364	0.447444	0	-0.150881	-57.644688	961.317327	-29.838327	0.772042	0	-0.104667	0	3.985275	0	0	-2.545694	0
2.2995	48.463854	546.131195	-3.6904	0.447431	0	-0.151027	-57.632271	960.228273	-30.127119	0.772047	0	-0.104653	0	3.953711	0	0	-2.524196	0
2.29975	48.621574	546.230752	-3.30046	0.447418	0	-0.151172	-57.622441	959.136782	-30.414248	0.772053	0	-0.10464	0	3.922504	0	0	-2.502334	0
2.3	48.77513	546.325466	-2.913969	0.447405	0	-0.151316	-57.615155	958.042871	-30.699699	0.772058	0	-0.104626	0	3.89166	0	0	-2.480112	0
2.30025	48.924479	546.415225	-2.531074	0.447391	0	-0.151458	-57.610371	956.946562	-30.983458	0.772064	0	-0.104613	0	3.861183	0	0	-2.457533	0
2.3005	49.069586	546.499909	-2.151924	0.447378	0	-0.151599	-57.608043	955.847881	-31.265516	0.77207	0	-0.1046	0	3.831077	0	0	-2.434602	0
2.30075	49.210417	546.579395	-1.776664	0.447364	0	-0.151738	-57.608123	954.746861	-31.545869	0.772076	0	-0.104587	0	3.801348	0	0	-2.411324	0
2.301	49.346947	546.653556	-1.405438	0.44735	0	-0.151876	-57.610564	953.643537	-31.824513	0.772082	0	-0.104574	0	3.771997	0	0	-2.387703	0
2.30125	49.479154	546.722261	-1.03839	0.447336	0	-0.152012	-57.615316	952.537954	-32.101449	0.772088	0	-0.104561	0	3.74303	0	0	-2.363745	0
2.3015	49.607022	546.785372	-0.675661	0.447322	0	-0.152147	-57.622328	951.430162	-32.376682	0.772095	0	-0.104548	0	3.714448	0	0	-2.339455	0
2.30175	49.730539	546.842751	-0.317392	0.447308	0	-0.15228	-57.631547	950.320215	-32.65022	0.772101	0	-0.104535	0	3.686255	0	0	-2.314841	0
2.302	49.849699	546.894252	0.036279	0.447293	0	-0.152411	-57.64292	949.208178	-32.922073	0.772108	0	-0.104523	0	3.658453	0	0	-2.289908	0
2.30225	49.9645	546.939728	0.385215	0.447279	0	-0.152541	-57.656394	948.094117	-33.192257	0.772115	0	-0.10451	0	3.631045	0	0	-2.264663	0
2.3025	50.074946	546.979027	0.729279	0.447264	0	-0.152668	-57.671914	946.978111	-33.460787	0.772121	0	-0.104498	0	3.604031	0	0	-2.239114	0
2.30275	50.181044	547.011994	1.068338	0.44725	0	-0.152795	-57.689424	945.86024	-33.727686	0.772128	0	-0.104485	0	3.577413	0	0	-2.213269	0
2.303	50.282805	547.03847	1.40226	0.447236	0	-0.152919	-57.708868	944.740594	-33.992977	0.772135	0	-0.104473	0	3.551192	0	0	-2.187135	0
2.30325	50.380244	547.058295	1.730914	0.447221	0	-0.153041	-57.73019	943.619267	-34.256685	0.772143	0	-0.104461	0	3.525369	0	0	-2.160721	0
2.3035	50.473382	547.071304	2.054172	0.447207	0	-0.153162	-57.753334	942.496361	-34.518842	0.77215	0	-0.10445	0	3.499944	0	0	-2.134036	0
2.30375	50.56224	547.077331	2.371906	0.447193	0	-0.15328	-57.778242	941.371984	-34.779478	0.772157	0	-0.104438	0	3.474916	0	0	-2.10709	0
2.304	50.646844	547.076207	2.683991	0.447179	0	-0.153397	-57.804859	940.246248	-35.03863	0.772164	0	-0.104427	0	3.450285	0	0	-2.079891	0
2.30425	50.727223	547.067763	2.990305	0.447165	0	-0.153511	-57.833127	939.119272	-35.296335	0.772172	0	-0.104415	0	3.42605	0	0	-2.052449	0
2.3045	50.803408	547.051827	3.290727	0.447151	0	-0.153624	-57.86299	937.991179	-35.552633	0.772179	0	-0.104404	0	3.40221	0	0	-2.024775	0
2.30475	50.875431	547.028227	3.585137	0.447137	0	-0.153734	-57.894392	936.862097	-35.807565	0.772187	0	-0.104394	0	3.378762	0	0	-1.996879	0
2.305	50.943328	546.996788	3.873418	0.447124	0	-0.153843	-57.927278	935.732159	-36.061178	0.772195	0	-0.104383	0	3.355705	0	0	-1.968772	0
2.30525	51.007135	546.957338	4.155457	0.447111	0	-0.153949	-57.961592	934.6015	-36.313517	0.772203	0	-0.104373	0	3.333037	0	0	-1.940465	0
2.3055	51.066891	546.909703	4.43114	0.447098	0	-0.154053	-57.997281	933.47026	-36.564632	0.772211	0	-0.104363	0	3.310754	0	0	-1.911969	0
2.30575	51.122634	546.853709	4.700358	0.447085	0	-0.154155	-58.034291	932.338579	-36.814571	0.772219	0	-0.104353	0	3.288854	0	0	-1.883297	0
2.306	51.174404	546.789185	4.963004	0.447073	0	-0.154255	-58.072568	931.206603	-37.063387	0.772227	0	-0.104344	0	3.267333	0	0	-1.85446	0
2.30625	51.222241	546.715958	5.218972	0.447061	0	-0.154353	-58.112062	930.074476	-37.311133	0.772235	0	-0.104335	0	3.246188	0	0	-1.82547	0
2.3065	51.266186	546.633859	5.468162	0.447049	0	-0.154448	-58.152721	928.942344	-37.557863	0.772244	0	-0.104326	0	3.225414	0	0	-1.796341	0
2.30675	51.306279	546.542722	5.710474	0.447038	0	-0.154541	-58.194495	927.810356	-37.803633	0.772253	0	-0.104318	0	3.205009	0	0	-1.767086	0
2.307	51.34256	546.44238	5.945813	0.447027	0	-0.154632	-58.237336	926.678656	-38.048497	0.772261	0	-0.104309	0	3.184966	0	0	-1.737717	0
2.30725	51.37507	546.332671	6.174085	0.447016	0	-0.154721	-58.281195	925.547392	-38.292513	0.77227	0	-0.104301	0	3.165283	0	0	-1.708249	0
